<?xml version="1.0" standalone="no"?>
<!DOCTYPE svg PUBLIC "-//W3C//DTD SVG 1.1//EN" "http://www.w3.org/Graphics/SVG/1.1/DTD/svg11.dtd" >
<svg xmlns="http://www.w3.org/2000/svg">
<metadata></metadata>
<defs>
<font id="skyforge_digitsregular" horiz-adv-x="1752" >
<font-face units-per-em="2048" ascent="1638" descent="-410" />
<missing-glyph horiz-adv-x="500" />
<glyph horiz-adv-x="2048" />
<glyph horiz-adv-x="2048" />
<glyph unicode="&#xd;" horiz-adv-x="2048" />
<glyph unicode="*" horiz-adv-x="1429" d="M202 917l187 189l310 -307l298 301l193 -191l-299 -301l310 -307l-187 -189l-310 307l-304 -307l-192 191l304 307z" />
<glyph unicode="+" horiz-adv-x="1397" d="M127 477v266h436v424h271v-424h436v-266h-436v-432h-271v432h-436z" />
<glyph unicode="," horiz-adv-x="668" d="M72 -119q51 0 83.5 5.5t51 17.5t25 31t6.5 45v20h-107v393h406v-393q0 -100 -19.5 -166t-71 -105t-142 -55t-232.5 -16v223z" />
<glyph unicode="-" horiz-adv-x="1024" d="M143 354v305h738v-305h-738z" />
<glyph unicode="." horiz-adv-x="668" d="M131 0v393h406v-393h-406z" />
<glyph unicode="/" horiz-adv-x="1116" d="M99 0l629 1400h293l-629 -1400h-293z" />
<glyph unicode="0" d="M100 349v702q0 192 183 306q81 43 166 43h849q190 0 305 -183q44 -81 44 -166v-702q0 -192 -183 -306q-82 -43 -166 -43h-849q-192 0 -306 183q-43 81 -43 166zM451 395q0 -79 84 -92h669q79 0 92 84v618q0 79 -85 92h-668q-79 0 -92 -84v-618z" />
<glyph unicode="1" d="M300 1003v2q10 10 664 385q9 10 26 10h330q3 0 7 -8v-1385q0 -3 -7 -7h-337q-3 0 -7 7v984q-7 0 -472 -270q-25 -16 -33 -16q-7 16 -171 298z" />
<glyph unicode="2" d="M100 7v433q0 192 183 306q81 43 166 43h755q79 0 92 84v132q0 79 -85 92h-668q-79 0 -92 -84v-116q0 -3 -7 -7h-337q-3 0 -7 7v154q0 192 183 306q81 43 166 43h849q190 0 305 -183q44 -81 44 -166v-216q0 -192 -183 -306q-82 -43 -166 -43h-755q-79 0 -92 -84v-99h1189 q3 0 7 -7v-289q0 -3 -7 -7h-1533q-3 0 -7 7z" />
<glyph unicode="3" d="M100 349v154q0 3 7 7h337q3 0 7 -7v-108q0 -79 84 -92h669q79 0 92 84v56q0 78 -85 91h-546q-3 0 -7 7v289q0 3 7 7h539q79 0 92 84v84q0 79 -85 92h-668q-79 0 -92 -84v-116q0 -3 -7 -7h-337q-3 0 -7 7v154q0 192 183 306q81 43 166 43h849q190 0 305 -183 q44 -81 44 -166v-94q0 -164 -210 -252q-7 0 -7 -5l56 -26q161 -91 161 -231v-94q0 -192 -183 -306q-82 -43 -166 -43h-849q-192 0 -306 183q-43 81 -43 166z" />
<glyph unicode="4" d="M100 286v445q0 15 46 41q863 608 897 628h416q4 0 7 -7v-811h174q3 0 7 -7v-289q0 -3 -7 -7h-174v-272q0 -3 -7 -7h-337q-3 0 -7 7v272h-1008q-3 0 -7 7zM407 581h706v497h-5q-676 -475 -701 -490v-7z" />
<glyph unicode="5" d="M100 349v53q0 3 7 7h337q3 0 7 -7v-7q0 -79 84 -92h669q79 0 92 84v157q0 78 -85 91h-1104q-3 0 -7 7v751q0 3 7 7h1533q3 0 7 -7v-289q0 -3 -7 -7h-1189v-159h847q190 0 305 -183q44 -81 44 -166v-240q0 -192 -183 -306q-82 -43 -166 -43h-849q-192 0 -306 183 q-43 81 -43 166z" />
<glyph unicode="6" d="M100 349v702q0 192 183 306q81 43 166 43h849q190 0 305 -183q44 -81 44 -166v-70q0 -3 -7 -7h-337q-4 0 -7 7v24q0 79 -85 92h-668q-79 0 -92 -84v-123h847q191 0 305 -183q44 -81 44 -166v-192q0 -192 -183 -306q-82 -43 -166 -43h-849q-192 0 -306 183q-43 81 -43 166 zM451 395q0 -79 84 -92h669q79 0 92 84v109q0 78 -85 91h-668q-79 0 -92 -84v-108z" />
<glyph unicode="7" d="M100 1104v289q0 3 7 7h1533q3 0 7 -7v-284q0 -15 -121 -159q-712 -907 -750 -950h-428q-5 0 -5 5l859 1090v2h-1095q-3 0 -7 7z" />
<glyph unicode="8" d="M100 349v118q0 164 209 252q7 0 7 5l-55 27q-161 90 -161 230v70q0 192 183 306q81 43 166 43h849q190 0 305 -183q44 -81 44 -166v-70q0 -164 -210 -252q-7 0 -7 -5l56 -26q161 -91 161 -231v-118q0 -192 -183 -306q-82 -43 -166 -43h-849q-192 0 -306 183 q-43 81 -43 166zM451 395q0 -79 84 -92h669q79 0 92 84v80q0 78 -85 91h-668q-79 0 -92 -84v-79zM451 953q0 -79 84 -92h669q79 0 92 84v60q0 79 -85 92h-668q-79 0 -92 -84v-60z" />
<glyph unicode="9" d="M100 349v70q0 3 7 7h337q3 0 7 -7v-25q0 -78 84 -91h669q79 0 91 84v123h-846q-192 0 -306 183q-43 81 -43 166v192q0 192 183 306q81 43 166 43h849q190 0 305 -183q44 -81 44 -166v-702q0 -192 -183 -306q-82 -43 -166 -43h-849q-192 0 -306 183q-43 81 -43 166z M451 904q0 -78 84 -91h669q79 0 91 84v108q0 79 -84 92h-668q-79 0 -92 -84v-109z" />
<glyph unicode=":" horiz-adv-x="700" d="M147 0v393h406v-393h-406zM147 590v393h406v-393h-406z" />
<glyph unicode=";" horiz-adv-x="700" d="M88 -119q51 0 83.5 5.5t51 17.5t25 31t6.5 45v20h-107v393h406v-393q0 -100 -19.5 -166t-71 -105t-142 -55t-232.5 -16v223zM147 590v393h406v-393h-406z" />
<glyph unicode="&#x3c;" horiz-adv-x="1397" d="M127 506v211l1143 424v-279l-738 -250v-6l738 -244v-280z" />
<glyph unicode="=" horiz-adv-x="1397" d="M127 221v266h1143v-266h-1143zM127 670v266h1143v-266h-1143z" />
<glyph unicode="&#x3e;" horiz-adv-x="1397" d="M127 82v280l737 244v6l-737 250v279l1143 -424v-211z" />
<glyph unicode="?" horiz-adv-x="1550" d="M100 897v154q0 192 183 306q81 43 166 43h656q191 0 306 -183q43 -81 43 -166v-144q0 -192 -183 -306q-81 -43 -166 -43h-122q-71 0 -92 -74l-4 -3h-340q-3 0 -7 7v24q0 192 183 306q82 43 166 43h123q78 0 91 84v60q0 79 -84 92h-476q-79 0 -92 -84v-116q0 -3 -7 -7 h-337q-3 0 -7 7zM540 7v351q0 4 7 8h340q4 -1 4 -5v-354q0 -3 -7 -7h-337q-3 0 -7 7z" />
<glyph unicode="&#xad;" horiz-adv-x="1024" d="M143 354v305h738v-305h-738z" />
<glyph unicode="&#x2000;" horiz-adv-x="700" />
<glyph unicode="&#x2001;" horiz-adv-x="1400" />
<glyph unicode="&#x2002;" horiz-adv-x="700" />
<glyph unicode="&#x2003;" horiz-adv-x="1400" />
<glyph unicode="&#x2004;" horiz-adv-x="466" />
<glyph unicode="&#x2005;" horiz-adv-x="350" />
<glyph unicode="&#x2006;" horiz-adv-x="233" />
<glyph unicode="&#x2007;" horiz-adv-x="233" />
<glyph unicode="&#x2008;" horiz-adv-x="175" />
<glyph unicode="&#x2009;" horiz-adv-x="280" />
<glyph unicode="&#x200a;" horiz-adv-x="77" />
<glyph unicode="&#x2010;" horiz-adv-x="1024" d="M143 354v305h738v-305h-738z" />
<glyph unicode="&#x2011;" horiz-adv-x="1024" d="M143 354v305h738v-305h-738z" />
<glyph unicode="&#x2012;" horiz-adv-x="1024" d="M143 354v305h738v-305h-738z" />
<glyph unicode="&#x2013;" horiz-adv-x="1310" d="M143 354v305h1024v-305h-1024z" />
<glyph unicode="&#x2014;" horiz-adv-x="2334" d="M143 354v305h2048v-305h-2048z" />
<glyph unicode="&#x202f;" horiz-adv-x="280" />
<glyph unicode="&#x205f;" horiz-adv-x="350" />
</font>
</defs>
</svg>
